<svg id="SvgjsSvg1001" width="288" height="288" xmlns="http://www.w3.org/2000/svg" version="1.1" xmlns:xlink="http://www.w3.org/1999/xlink" xmlns:svgjs="http://svgjs.com/svgjs"><circle id="SvgjsCircle1020" r="144" cx="144" cy="144" fill="#4d7aed" transform="matrix(0.9167,0,0,0.9167,11.995200000000011,11.995200000000011)"></circle><defs id="SvgjsDefs1002"></defs><g id="SvgjsG1008" transform="matrix(0.4652,0,0,0.4652,76.91072915039062,77.0112)"><svg xmlns="http://www.w3.org/2000/svg" width="288" height="288" viewBox="-85 0 512 512"><path d="m26.667969 298.667969h94.226562l-19.453125 183.914062c-.085937.554688-.109375 2.195313-.109375 2.75 0 14.699219 11.96875 26.667969 26.667969 26.667969 8.363281 0 16.339844-4.011719 21.632812-11.113281l186.367188-266.21875c3.433594-4.589844 5.332031-10.261719 5.332031-16 0-14.699219-11.964843-26.667969-26.664062-26.667969h-115.328125l19.199218-162.199219c.0625-.617187.105469-2.515625.105469-3.132812.023438-14.699219-11.945312-26.667969-26.644531-26.667969-8.363281 0-16.339844 4.011719-21.800781 11.328125l-164.867188 244.671875c-3.433593 4.585938-5.332031 10.261719-5.332031 16 0 14.699219 11.96875 26.667969 26.667969 26.667969zm0 0" fill="#66c2ff" class="color000 svgShape"></path></svg></g></svg>